<svg id="visual" viewBox="0 0 1920 1080" width="1920" height="1080" xmlns="http://www.w3.org/2000/svg" xmlns:xlink="http://www.w3.org/1999/xlink" version="1.1"><rect x="0" y="0" width="1920" height="1080" fill="#0F2E71"></rect><path d="M0 1010L64 1006.3C128 1002.7 256 995.3 384 1000.2C512 1005 640 1022 768 1023.5C896 1025 1024 1011 1152 994.8C1280 978.7 1408 960.3 1536 965.5C1664 970.7 1792 999.3 1856 1013.7L1920 1028L1920 1081L1856 1081C1792 1081 1664 1081 1536 1081C1408 1081 1280 1081 1152 1081C1024 1081 896 1081 768 1081C640 1081 512 1081 384 1081C256 1081 128 1081 64 1081L0 1081Z" fill="#ffffff" stroke-linecap="round" stroke-linejoin="miter"></path></svg>