<svg id="visual" viewBox="0 0 1920 768" width="1920" height="768" xmlns="http://www.w3.org/2000/svg" xmlns:xlink="http://www.w3.org/1999/xlink" version="1.1"><rect x="0" y="0" width="1920" height="768" fill="#0F2E71"></rect><path d="M0 718L64 715.5C128 713 256 708 384 711.3C512 714.7 640 726.3 768 727.3C896 728.3 1024 718.7 1152 707.3C1280 696 1408 683 1536 686.5C1664 690 1792 710 1856 720L1920 730L1920 769L1856 769C1792 769 1664 769 1536 769C1408 769 1280 769 1152 769C1024 769 896 769 768 769C640 769 512 769 384 769C256 769 128 769 64 769L0 769Z" fill="#ffffff" stroke-linecap="round" stroke-linejoin="miter"></path></svg>